<svg width="14" height="14" viewBox="0 0 14 14" fill="none" xmlns="http://www.w3.org/2000/svg">
<g clip-path="url(#clip0_849_1983)">
<path d="M7 13.125C10.3827 13.125 13.125 10.3827 13.125 7C13.125 3.61726 10.3827 0.875 7 0.875C3.61726 0.875 0.875 3.61726 0.875 7C0.875 10.3827 3.61726 13.125 7 13.125Z" fill="#FFC84D"/>
<path d="M4.26789 5.66947C4.18144 5.71217 4.08204 5.63727 4.10129 5.54277C4.20804 5.01812 4.65954 4.62402 5.20029 4.62402C5.74104 4.62402 6.19254 5.01812 6.29929 5.54277C6.31854 5.63727 6.21914 5.71217 6.13269 5.66947C5.94404 5.57637 5.62274 5.45912 5.20029 5.45912C4.77784 5.45912 4.45654 5.57637 4.26789 5.66947Z" fill="black"/>
<path d="M9.73209 5.66947C9.81854 5.71217 9.91794 5.63727 9.89869 5.54277C9.79194 5.01812 9.34044 4.62402 8.79969 4.62402C8.25894 4.62402 7.80744 5.01812 7.70069 5.54277C7.68144 5.63727 7.78084 5.71217 7.86729 5.66947C8.05594 5.57637 8.37724 5.45912 8.79969 5.45912C9.22214 5.45912 9.54344 5.57637 9.73209 5.66947Z" fill="black"/>
<path d="M6.93631 8.5826C5.69206 8.5826 4.79746 8.03835 4.30956 7.6404C4.16536 7.5228 3.95711 7.6873 4.04181 7.8532C4.47791 8.70685 5.73791 9.33195 6.93631 9.33195C8.13471 9.33195 9.39506 8.7072 9.83081 7.8532C9.91551 7.68765 9.70726 7.5228 9.56306 7.6404C9.07516 8.03835 8.18056 8.5826 6.93631 8.5826Z" fill="#FF6D00"/>
<path d="M10.5129 8.86711L9.8798 7.75726L9.73175 7.49756C9.73175 7.49756 9.72825 7.49826 9.7265 7.49966C9.3184 7.87066 8.4413 8.49506 7.17325 8.56821L7.72205 9.53036L8.12875 10.2433C8.49765 10.8821 9.32995 11.0917 9.9883 10.7116C10.6466 10.3315 10.8811 9.50551 10.5126 8.86711H10.5129Z" fill="#F5172B"/>
</g>
<defs>
<clipPath id="clip0_849_1983">
<rect width="14" height="14" fill="white"/>
</clipPath>
</defs>
</svg>
