<svg width="300" height="55" viewBox="0 0 300 55" fill="none" xmlns="http://www.w3.org/2000/svg">
<path d="M16.0264 2.37244C22.7162 -0.590245 31.9641 -0.98532 39.2441 2.37244C49.2789 7.11285 55.5752 17.1865 55.1816 28.2474C55.1816 31.6052 54.3949 34.9632 53.0176 38.1234C51.6404 41.2834 51.443 41.6783 50.2627 43.2582C47.1145 47.8011 42.5884 51.3572 37.4727 53.3324C33.9838 54.5161 35.2818 54.2118 33.9277 54.5316L33.1396 54.64C31.743 54.8269 30.3859 54.9389 29.0459 54.9799V55.0004H3.78027L8.82422 47.6937C5.3797 44.6 4.3999 42.8277 2.84375 39.7035C-0.501132 32.988 -0.894682 25.0875 1.66309 17.9769C4.22097 11.0638 9.33651 5.33519 16.0264 2.37244ZM45.1465 12.4457C43.3762 12.6432 43.7694 13.2359 43.7695 14.0258V19.3588C43.9663 20.9389 44.7535 22.1244 46.1309 22.9144C47.508 23.7043 47.5084 23.1119 48.0986 22.9144V22.7172C48.492 22.5195 48.6885 21.9268 48.6885 21.3344V16.1986C48.6884 14.2235 46.9173 12.2482 45.1465 12.4457ZM37.6699 11.6556C37.6697 9.68073 35.7023 8.49537 33.9316 8.69275C32.1608 8.89027 31.9639 9.68075 31.9639 10.6683V15.6058C31.9639 17.581 33.9318 19.162 35.8994 18.767H35.7021C36.8827 18.5695 37.6699 17.5812 37.6699 16.1986V11.6556Z" fill="url(#paint0_linear_8_251)"/>
<path d="M35.6999 18.7649C33.7323 19.1599 31.7646 17.5798 31.7646 15.6046V10.6667C31.7646 9.67913 32.7485 8.88907 33.7323 8.69155C35.5031 8.49403 37.4707 9.67913 37.4707 11.6543V16.1972C37.4707 17.3823 36.8804 18.3699 35.5031 18.7649H35.6999Z" fill="#242424"/>
<path d="M48.0978 22.7157C47.5075 23.1107 46.7204 23.1107 46.1302 22.7157C44.7528 22.1232 43.9658 20.7405 43.769 19.1604V13.8275C43.769 13.0374 44.5561 12.2473 45.3431 12.2473C47.114 12.0498 48.8848 14.025 48.8848 16.0001V21.1356C48.8848 21.5306 48.4913 22.1232 48.2945 22.5182L48.0978 22.7157Z" fill="#242424"/>
<path d="M262.464 53.135H257.97C257.493 53.135 257.084 52.9299 256.948 52.4514L244.622 18.75C244.418 18.1348 244.759 17.7246 245.371 17.7246H253.884C254.36 17.7246 254.701 17.9297 254.837 18.4766L260.83 38.0275L269.07 18.4082C269.274 17.998 269.614 17.7246 270.091 17.7246H274.586C275.062 17.7246 275.403 17.9297 275.607 18.4082L283.438 37.549L289.771 18.4766C289.908 17.998 290.316 17.7246 290.793 17.7246H298.556C299.169 17.7246 299.509 18.1348 299.305 18.75L286.979 52.4514C286.843 52.9299 286.435 53.135 285.958 53.135H281.463C280.987 53.135 280.646 52.9299 280.442 52.4514L272.202 32.2169L263.486 52.4514C263.281 52.8616 262.941 53.135 262.464 53.135Z" fill="#242424"/>
<path d="M229.319 53.8185C218.219 53.8185 211.478 46.1622 211.478 35.4297C211.478 24.6972 218.219 17.0409 229.319 17.0409C240.147 17.0409 246.344 25.1073 246.003 37.2754C245.935 37.8906 245.595 38.1641 245.05 38.1641H220.875C221.692 43.0176 224.689 45.9571 229.387 45.9571C232.997 45.9571 235.516 44.5899 237.151 41.9239C237.423 41.4453 237.831 41.377 238.308 41.5137L244.369 43.6329C244.914 43.8379 245.118 44.2481 244.846 44.795C241.713 51.0157 235.857 53.8185 229.319 53.8185ZM221.011 31.5332H236.538C235.72 27.3632 233.065 24.9023 229.251 24.9023C225.097 24.9023 222.101 27.2949 221.011 31.5332Z" fill="#242424"/>
<path d="M203.263 11.4363C200.335 11.4363 198.088 9.45391 198.088 6.51443C198.088 3.57496 200.335 1.59253 203.263 1.59253C206.192 1.59253 208.439 3.57496 208.439 6.51443C208.439 9.45391 206.192 11.4363 203.263 11.4363ZM206.804 53.1358H199.722C199.177 53.1358 198.837 52.794 198.837 52.2472V18.6141C198.837 18.0672 199.177 17.7254 199.722 17.7254H206.804C207.349 17.7254 207.69 18.0672 207.69 18.6141V52.2472C207.69 52.794 207.349 53.1358 206.804 53.1358Z" fill="#242424"/>
<path d="M180.039 53.135H175.545C175.068 53.135 174.728 52.8616 174.523 52.4514L159.474 18.75C159.201 18.1348 159.474 17.7246 160.155 17.7246H168.599C169.075 17.7246 169.416 17.9297 169.62 18.4082L178.064 39.9416L186.508 18.4082C186.713 17.9297 187.053 17.7246 187.53 17.7246H195.429C196.11 17.7246 196.383 18.1348 196.11 18.75L181.061 52.4514C180.856 52.8616 180.516 53.135 180.039 53.135Z" fill="#242424"/>
<path d="M152.348 11.4363C149.42 11.4363 147.172 9.45391 147.172 6.51443C147.172 3.57496 149.42 1.59253 152.348 1.59253C155.276 1.59253 157.523 3.57496 157.523 6.51443C157.523 9.45391 155.276 11.4363 152.348 11.4363ZM155.889 53.1358H148.807C148.262 53.1358 147.921 52.794 147.921 52.2472V18.6141C147.921 18.0672 148.262 17.7254 148.807 17.7254H155.889C156.434 17.7254 156.774 18.0672 156.774 18.6141V52.2472C156.774 52.794 156.434 53.1358 155.889 53.1358Z" fill="#242424"/>
<path d="M141.206 53.1345H134.124C133.579 53.1345 133.239 52.7927 133.239 52.2458V2.7533C133.239 2.20642 133.579 1.86462 134.124 1.86462H141.206C141.751 1.86462 142.092 2.20642 142.092 2.7533V52.2458C142.092 52.7927 141.751 53.1345 141.206 53.1345Z" fill="#242424"/>
<path d="M103.036 54.0925C88.4627 54.0925 77.8394 43.7702 77.8394 28.0474C77.8394 12.3246 88.4627 2.00232 103.036 2.00232C117.609 2.00232 128.232 12.3246 128.232 28.0474C128.232 43.7702 117.609 54.0925 103.036 54.0925ZM103.036 45.069C112.637 45.069 118.698 37.9596 118.698 28.0474C118.698 18.1352 112.637 11.0258 103.036 11.0258C93.4338 11.0258 87.3731 18.1352 87.3731 28.0474C87.3731 37.9596 93.4338 45.069 103.036 45.069Z" fill="#242424"/>
<path d="M298.555 17.0836C298.994 17.0836 299.451 17.2332 299.743 17.6177C300.042 18.0109 300.058 18.5047 299.91 18.9528L299.903 18.9716L287.578 52.6717L287.576 52.6696C287.46 53.0394 287.235 53.3279 286.931 53.5166C286.627 53.7055 286.281 53.7752 285.957 53.7753H281.461C281.131 53.7752 280.798 53.704 280.501 53.5103C280.278 53.3643 280.103 53.1685 279.971 52.9408L279.849 52.6946L272.182 33.8711L264.069 52.7051L264.063 52.7218L264.055 52.7384C263.769 53.3117 263.235 53.7752 262.463 53.7753H257.968C257.643 53.7752 257.297 53.7055 256.993 53.5166C256.69 53.3278 256.462 53.0396 256.347 52.6696V52.6717L244.021 18.9716L244.015 18.9528C243.866 18.5047 243.882 18.0109 244.181 17.6177C244.473 17.2332 244.93 17.0837 245.37 17.0836V17.7241C244.757 17.7242 244.417 18.1354 244.621 18.7505L256.947 52.4506C257.083 52.9289 257.491 53.1347 257.968 53.1348H262.463L262.635 53.1223C263.022 53.0643 263.304 52.8094 263.483 52.4506L272.201 32.2167L280.441 52.4506C280.645 52.9289 280.985 53.1347 281.461 53.1348H285.957L286.131 53.1244C286.531 53.0787 286.858 52.8694 286.977 52.4506L299.303 18.7505C299.482 18.212 299.244 17.8296 298.771 17.7428L298.555 17.7241V17.0836ZM270.09 17.0836V17.7241L269.917 17.7366C269.53 17.7945 269.246 18.0494 269.067 18.4083L260.829 38.0267L254.836 18.4772C254.7 17.9303 254.359 17.7241 253.882 17.7241V17.0836C254.208 17.0836 254.56 17.1543 254.865 17.3799C255.165 17.6021 255.346 17.9226 255.443 18.2873H255.447L260.921 36.1533L268.479 18.1601L268.487 18.1392L268.498 18.1204C268.784 17.5474 269.317 17.0836 270.09 17.0836ZM290.79 17.0836V17.7241C290.314 17.7244 289.906 17.999 289.77 18.4772L283.436 37.549L275.605 18.4083C275.427 17.9899 275.144 17.7805 274.757 17.7345L274.585 17.7241V17.0836C274.915 17.0837 275.248 17.1549 275.545 17.3486C275.768 17.4944 275.941 17.6909 276.073 17.9181L276.193 18.1559L276.195 18.1643L283.373 35.7069L289.163 18.2727H289.165C289.395 17.5106 290.066 17.084 290.79 17.0836ZM298.555 17.0836V17.7241H290.79V17.0836H298.555ZM274.585 17.0836V17.7241H270.09V17.0836H274.585ZM253.882 17.0836V17.7241H245.37V17.0836H253.882Z" fill="#242424"/>
<path d="M210.84 35.4296C210.84 29.9291 212.569 25.1639 215.773 21.7694C218.981 18.3708 223.617 16.3997 229.319 16.3995C234.903 16.3995 239.351 18.4876 242.345 22.1908C245.327 25.8793 246.816 31.1029 246.643 37.2926L246.639 37.3468C246.593 37.7574 246.445 38.1461 246.132 38.4275C245.818 38.7088 245.427 38.805 245.051 38.8051H221.655C222.102 40.7708 222.944 42.3224 224.111 43.4114C225.417 44.6288 227.178 45.316 229.388 45.316V45.9565C224.689 45.9563 221.693 43.0178 220.875 38.1646H245.051L245.244 38.1521C245.614 38.1003 245.864 37.889 245.965 37.4908L246.005 37.2759C246.345 25.1079 240.147 17.04 229.319 17.04C218.22 17.0404 211.478 24.6975 211.478 35.4296C211.478 45.8268 217.805 53.3372 228.292 53.7963L229.319 53.8193C235.652 53.8193 241.346 51.188 244.544 45.3682L244.847 44.7945C245.119 44.2481 244.914 43.8375 244.369 43.6325L238.309 41.5129C237.833 41.3762 237.424 41.4457 237.152 41.9239C235.517 44.5899 232.997 45.9565 229.388 45.9565V45.316C232.803 45.316 235.103 44.0421 236.607 41.588C236.81 41.2408 237.097 40.9877 237.468 40.8746C237.825 40.7656 238.181 40.8106 238.484 40.8975L238.503 40.9017L238.519 40.9079L244.579 43.0275L244.594 43.0338L244.866 43.1589C245.131 43.3066 245.367 43.5231 245.5 43.8307C245.682 44.2519 245.609 44.6961 245.417 45.0824V45.0845C242.155 51.5621 236.048 54.4597 229.319 54.4597C223.617 54.4595 218.982 52.4885 215.773 49.0899C212.569 45.6954 210.84 40.9303 210.84 35.4296ZM229.953 24.932C233.39 25.2176 235.773 27.6236 236.539 31.5327H221.013C222.102 27.2948 225.099 24.9028 229.253 24.9028L229.953 24.932ZM229.253 25.5432C227.302 25.5432 225.659 26.1029 224.381 27.1287C223.278 28.0145 222.419 29.2745 221.871 30.8922H235.734C235.302 29.2808 234.561 28.0174 233.59 27.1287C232.475 26.1094 231.015 25.5434 229.253 25.5432Z" fill="#242424"/>
<path d="M198.197 18.6126C198.197 18.2044 198.328 17.8075 198.623 17.5111C198.918 17.2146 199.315 17.0835 199.722 17.0835V17.7239L199.527 17.7406C199.097 17.8135 198.837 18.1343 198.837 18.6126V52.2459L198.852 52.442C198.914 52.8116 199.159 53.0555 199.527 53.118L199.722 53.1347H206.803C207.347 53.1347 207.688 52.7928 207.688 52.2459V18.6126C207.688 18.0659 207.347 17.7239 206.803 17.7239V17.0835C207.21 17.0835 207.607 17.2146 207.902 17.5111C208.197 17.8076 208.328 18.2043 208.328 18.6126V52.2459L208.303 52.5484C208.253 52.8467 208.124 53.127 207.902 53.3495C207.607 53.6458 207.209 53.7751 206.803 53.7751H199.722C199.315 53.7751 198.918 53.6458 198.623 53.3495C198.327 53.053 198.197 52.6545 198.197 52.2459V18.6126ZM206.803 17.0835V17.7239H199.722V17.0835H206.803ZM208.438 6.5128C208.438 3.7575 206.463 1.84324 203.804 1.61445L203.264 1.59151C200.335 1.59151 198.087 3.57358 198.087 6.5128C198.087 9.26831 200.062 11.1844 202.721 11.4132L203.264 11.4362C206.008 11.4358 208.153 9.69251 208.411 7.05311L208.438 6.5128ZM209.076 6.5128C209.076 9.85101 206.497 12.0762 203.264 12.0766C200.029 12.0766 197.449 9.85134 197.449 6.5128C197.449 3.17451 200.03 0.95105 203.264 0.95105C206.497 0.951486 209.076 3.17484 209.076 6.5128Z" fill="#242424"/>
<path d="M195.429 17.0836C195.874 17.0836 196.372 17.2183 196.659 17.6511C196.949 18.0877 196.875 18.6003 196.695 19.0092L196.692 19.0112L181.642 52.7134L181.632 52.7384C181.346 53.3116 180.812 53.775 180.04 53.7753H175.545C174.869 53.7753 174.376 53.4201 174.071 52.9471L173.953 52.7384L173.94 52.7134L158.89 19.0112V19.0092C158.709 18.6001 158.635 18.0879 158.926 17.6511C159.213 17.2186 159.709 17.0838 160.154 17.0836V17.7241C159.473 17.7244 159.202 18.1355 159.474 18.7505L174.522 52.4506C174.701 52.8094 174.985 53.0644 175.372 53.1223L175.545 53.1348H180.04L180.212 53.1223C180.599 53.0641 180.882 52.8092 181.06 52.4506L196.111 18.7505C196.383 18.1352 196.11 17.7241 195.429 17.7241V17.0836ZM187.53 17.0836V17.7241C187.053 17.7241 186.714 17.9299 186.509 18.4083L178.064 39.9418L169.62 18.4083C169.441 17.99 169.159 17.7805 168.772 17.7345L168.6 17.7241V17.0836C168.93 17.0837 169.263 17.1549 169.56 17.3486C169.783 17.4944 169.956 17.6909 170.087 17.9181L170.214 18.1726L178.064 38.1915L185.915 18.1726L185.921 18.1559C186.062 17.8268 186.271 17.5431 186.57 17.3486C186.867 17.155 187.2 17.0837 187.53 17.0836ZM195.429 17.0836V17.7241H187.53V17.0836H195.429ZM168.6 17.0836V17.7241H160.154V17.0836H168.6Z" fill="#242424"/>
<path d="M147.285 18.6126C147.285 18.2043 147.416 17.8076 147.711 17.5111C148.006 17.2148 148.401 17.0836 148.808 17.0835V17.7239C148.264 17.7243 147.923 18.0662 147.923 18.6126V52.2459C147.923 52.7925 148.264 53.1343 148.808 53.1347H155.891C156.435 53.1347 156.776 52.7928 156.776 52.2459V18.6126C156.776 18.0659 156.435 17.7239 155.891 17.7239V17.0835C156.298 17.0835 156.694 17.2146 156.99 17.5111C157.285 17.8075 157.414 18.2044 157.414 18.6126V52.2459C157.414 52.6545 157.285 53.053 156.99 53.3495C156.695 53.6459 156.297 53.7751 155.891 53.7751H148.808C148.402 53.7749 148.006 53.6455 147.711 53.3495C147.415 53.053 147.285 52.6545 147.285 52.2459V18.6126ZM155.891 17.0835V17.7239H148.808V17.0835H155.891ZM157.526 6.5128C157.526 3.57358 155.277 1.59151 152.349 1.59151C149.422 1.59183 147.175 3.57382 147.175 6.5128L147.2 7.05311C147.44 9.51684 149.327 11.1998 151.809 11.4132L152.349 11.4362C155.094 11.4362 157.241 9.69284 157.499 7.05311L157.526 6.5128ZM158.135 7.12613C157.84 10.1213 155.381 12.0766 152.349 12.0766C149.116 12.0763 146.537 9.85109 146.537 6.5128C146.537 3.17476 149.116 0.951377 152.349 0.95105C155.583 0.95105 158.164 3.17451 158.164 6.5128L158.135 7.12613Z" fill="#242424"/>
<path d="M132.602 2.755C132.602 2.3464 132.73 1.94797 133.026 1.65141C133.321 1.35498 133.718 1.22583 134.125 1.22583V1.86629L133.93 1.88298C133.5 1.95608 133.24 2.27671 133.24 2.755V52.2474L133.254 52.4435C133.317 52.813 133.561 53.0568 133.93 53.1194L134.125 53.1361H141.207L141.401 53.1194C141.769 53.0571 142.014 52.8132 142.076 52.4435L142.093 52.2474V2.755C142.093 2.27635 141.831 1.95576 141.401 1.88298L141.207 1.86629V1.22583C141.614 1.22597 142.009 1.3555 142.305 1.65141C142.6 1.94797 142.731 2.3464 142.731 2.755V52.2474L142.706 52.5499C142.655 52.8481 142.526 53.1284 142.305 53.351C142.009 53.6469 141.614 53.7764 141.207 53.7766H134.125C133.718 53.7766 133.321 53.6474 133.026 53.351C132.73 53.0544 132.602 52.656 132.602 52.2474V2.755ZM141.207 1.22583V1.86629H134.125V1.22583H141.207Z" fill="#242424"/>
<path d="M128.229 28.0468C128.229 12.8156 118.26 2.65263 104.388 2.03222L103.033 2.00302C88.4605 2.00318 77.8374 12.3244 77.8372 28.0468C77.8372 43.2779 87.8066 53.4407 101.678 54.0614L103.033 54.0927C117.606 54.0927 128.229 43.7696 128.229 28.0468ZM118.058 28.0468C118.058 23.2204 116.583 19.1279 113.991 16.2495C111.406 13.3777 107.668 11.6662 103.033 11.6662C98.3989 11.6663 94.6601 13.3778 92.0749 16.2495C89.4839 19.1279 88.01 23.2206 88.01 28.0468L88.0266 28.9439C88.1982 33.3809 89.6457 37.1478 92.0749 39.8462C94.6601 42.7178 98.3991 44.4274 103.033 44.4275V45.0679C93.7319 45.0678 87.7535 38.397 87.3886 28.9689L87.372 28.0468C87.3721 18.1349 93.4317 11.0259 103.033 11.0257L103.923 11.0466C113.008 11.4727 118.696 18.4444 118.696 28.0468L118.678 28.9689C118.313 38.3971 112.335 45.0679 103.033 45.0679V44.4275C107.667 44.4275 111.406 42.7176 113.991 39.8462C116.583 36.9678 118.058 32.8735 118.058 28.0468ZM128.836 29.5343C128.521 36.8849 125.871 43.0302 121.55 47.417C116.941 52.0956 110.473 54.7332 103.033 54.7332C95.5931 54.7331 89.125 52.0958 84.5165 47.417C79.9076 42.7376 77.1992 36.0569 77.1992 28.0468C77.1993 20.0371 79.9079 13.3581 84.5165 8.67878C89.1251 3.99977 95.5929 1.36056 103.033 1.36047C110.474 1.36047 116.941 3.99969 121.55 8.67878C126.159 13.3581 128.869 20.0369 128.869 28.0468L128.836 29.5343Z" fill="#242424"/>
<defs>
<linearGradient id="paint0_linear_8_251" x1="14.3599" y1="44.204" x2="46.2319" y2="16.9657" gradientUnits="userSpaceOnUse">
<stop offset="0.3" stop-color="#ABD647"/>
<stop offset="1" stop-color="#ECEF39"/>
</linearGradient>
</defs>
</svg>
