<svg width="16" height="16" viewBox="0 0 16 16" fill="none" xmlns="http://www.w3.org/2000/svg">
<path fill-rule="evenodd" clip-rule="evenodd" d="M4.64609 0.690036C6.5852 -0.171663 9.26542 -0.286568 11.3756 0.690036C14.2844 2.06905 16.1098 4.99967 15.9957 8.21738C15.9957 9.19412 15.768 10.1711 15.3687 11.0904C14.9695 12.0097 14.9121 12.1249 14.5699 12.5846C13.6574 13.9059 12.3456 14.9397 10.8629 15.5143C9.85135 15.8587 10.2271 15.7708 9.83457 15.8639L9.60605 15.8951C9.20155 15.9494 8.8086 15.9808 8.4205 15.9928V15.9996H1.09628L2.5582 13.8736C1.55984 12.9737 1.27491 12.4583 0.823823 11.5494C-0.145567 9.59591 -0.259382 7.29745 0.482026 5.2291C1.22352 3.21812 2.70692 1.55189 4.64609 0.690036Z" fill="url(#paint0_linear_10_117)"/>
<defs>
<linearGradient id="paint0_linear_10_117" x1="4.16253" y1="12.8588" x2="13.4289" y2="4.96763" gradientUnits="userSpaceOnUse">
<stop offset="0.3" stop-color="#ABD647"/>
<stop offset="1" stop-color="#ECEF39"/>
</linearGradient>
</defs>
</svg>
