<svg width="20" height="20" viewBox="0 0 20 20" fill="none" xmlns="http://www.w3.org/2000/svg">
<rect width="20" height="20" fill="white"/>
<path d="M9.99971 15.4941L5.55626 18.1694C5.35997 18.2942 5.15475 18.3477 4.9406 18.3299C4.72646 18.3121 4.53909 18.2407 4.37848 18.1159C4.21788 17.991 4.09296 17.8352 4.00373 17.6483C3.91451 17.4613 3.89666 17.2516 3.9502 17.019L5.12798 11.9627L1.19312 8.56509C1.01467 8.40458 0.903316 8.22159 0.85906 8.01612C0.814804 7.81066 0.828009 7.61019 0.898676 7.41472C0.969343 7.21924 1.07641 7.05873 1.21989 6.93316C1.36336 6.8076 1.55966 6.72735 1.80878 6.69239L7.00172 6.23759L9.0093 1.47557C9.09853 1.26154 9.23701 1.10103 9.42474 0.994014C9.61247 0.887002 9.80412 0.833496 9.99971 0.833496C10.1953 0.833496 10.3869 0.887002 10.5747 0.994014C10.7624 1.10103 10.9009 1.26154 10.9901 1.47557L12.9977 6.23759L18.1906 6.69239C18.4405 6.72806 18.6368 6.80832 18.7795 6.93316C18.9223 7.05801 19.0294 7.21853 19.1007 7.41472C19.1721 7.61091 19.1857 7.81173 19.1414 8.01719C19.0972 8.22266 18.9855 8.40529 18.8063 8.56509L14.8714 11.9627L16.0492 17.019C16.1028 17.2509 16.0849 17.4606 15.9957 17.6483C15.9065 17.8359 15.7815 17.9918 15.6209 18.1159C15.4603 18.24 15.273 18.3114 15.0588 18.3299C14.8447 18.3485 14.6394 18.295 14.4432 18.1694L9.99971 15.4941Z" fill="#FFC83F"/>
</svg>
